# xmcd CD database file
#
# Track frame offsets:
#	150
#	14030
#	25288
#	37364
#	47544
#	70887
#	86464
#	97361
#	111010
#	157194
#	168950
#	189271
#	217915
#	230735
#	240170
#	252093
#	263843
#	275740
#	288445
#	304402
#	326198
#	341480
#
# Disc length: 4782 seconds
#
# Revision: 0
# Processed by: cddbd v1.5PL3 Copyright (c) Steve Scherf et al.
# Submitted via: CDex 1.40Release
#
DISCID=4812ac16
DTITLE=Creedence Clearwater Revival - Creedence Clearwater Revival
DYEAR=1900
DGENRE=Country
TTITLE0=Proud Mary
TTITLE1=Green River
TTITLE2=Down on the corner
TTITLE3=Fortunate son
TTITLE4=Born on the Bayou
TTITLE5=Long as I can see the Light
TTITLE6=Who'll stop the rain
TTITLE7=Run Through the jungle
TTITLE8=I heard it Through the grapevine
TTITLE9=Have you ever seen the rain?
TTITLE10=Susie Q
TTITLE11=Pagan Baby
TTITLE12=Sweet Hitch-Hiker
TTITLE13=Travelin' Band
TTITLE14=Good Golly Miss Molly
TTITLE15=Up Around The Bend
TTITLE16=Hey Tonight
TTITLE17=It Came Out Of The Sky
TTITLE18=Tombstone Shadow
TTITLE19=Wrotea Song For Everyone
TTITLE20=Before You Acuse Me
TTITLE21=It's Just A Thought
EXTD=ID3G: 2
EXTT0=
EXTT1=
EXTT2=
EXTT3=
EXTT4=
EXTT5=
EXTT6=
EXTT7=
EXTT8=
EXTT9=
EXTT10=
EXTT11=
EXTT12=
EXTT13=
EXTT14=
EXTT15=
EXTT16=
EXTT17=
EXTT18=
EXTT19=
EXTT20=
EXTT21=
PLAYORDER=
